<svg id="visual" viewBox="0 0 900 600" width="900" height="600" xmlns="http://www.w3.org/2000/svg" xmlns:xlink="http://www.w3.org/1999/xlink" version="1.1"><rect x="0" y="0" width="900" height="600" fill="#002233"></rect><path d="M0 482L21.5 479.5C43 477 86 472 128.8 457.8C171.7 443.7 214.3 420.3 257.2 407.5C300 394.7 343 392.3 385.8 393.3C428.7 394.3 471.3 398.7 514.2 402.8C557 407 600 411 642.8 408.2C685.7 405.3 728.3 395.7 771.2 402.5C814 409.3 857 432.7 878.5 444.3L900 456L900 601L878.5 601C857 601 814 601 771.2 601C728.3 601 685.7 601 642.8 601C600 601 557 601 514.2 601C471.3 601 428.7 601 385.8 601C343 601 300 601 257.2 601C214.3 601 171.7 601 128.8 601C86 601 43 601 21.5 601L0 601Z" fill="#e57373" stroke-linecap="round" stroke-linejoin="miter"></path></svg>